<svg viewBox="0 0 330 200" xmlns="http://www.w3.org/2000/svg"><g><g><g><g><g><line x1="58" y1="178" x2="53" y2="178" style="visibility: inherit;" fill="rgb(0, 0, 0)" stroke="rgb(204, 204, 204)" stroke-width="1px"></line><line x1="58" y1="158.22222222222223" x2="53" y2="158.22222222222223" style="visibility: inherit;" fill="rgb(0, 0, 0)" stroke="rgb(204, 204, 204)" stroke-width="1px"></line><line x1="58" y1="138.44444444444446" x2="53" y2="138.44444444444446" style="visibility: inherit;" fill="rgb(0, 0, 0)" stroke="rgb(204, 204, 204)" stroke-width="1px"></line><line x1="58" y1="118.66666666666666" x2="53" y2="118.66666666666666" style="visibility: inherit;" fill="rgb(0, 0, 0)" stroke="rgb(204, 204, 204)" stroke-width="1px"></line><line x1="58" y1="98.88888888888889" x2="53" y2="98.88888888888889" style="visibility: inherit;" fill="rgb(0, 0, 0)" stroke="rgb(204, 204, 204)" stroke-width="1px"></line><line x1="58" y1="79.1111111111111" x2="53" y2="79.1111111111111" style="visibility: inherit;" fill="rgb(0, 0, 0)" stroke="rgb(204, 204, 204)" stroke-width="1px"></line><line x1="58" y1="59.33333333333334" x2="53" y2="59.33333333333334" style="visibility: inherit;" fill="rgb(0, 0, 0)" stroke="rgb(204, 204, 204)" stroke-width="1px"></line><line x1="58" y1="39.55555555555557" x2="53" y2="39.55555555555557" style="visibility: inherit;" fill="rgb(0, 0, 0)" stroke="rgb(204, 204, 204)" stroke-width="1px"></line><line x1="58" y1="19.7777777777778" x2="53" y2="19.7777777777778" style="visibility: inherit;" fill="rgb(0, 0, 0)" stroke="rgb(204, 204, 204)" stroke-width="1px"></line><line x1="58" y1="0" x2="53" y2="0" style="visibility: inherit;" fill="rgb(0, 0, 0)" stroke="rgb(204, 204, 204)" stroke-width="1px"></line></g><g transform="translate(48, 0)"><text x="0" y="178" dx="0em" dy="0.3em" style="text-anchor: end; visibility: hidden; font-family: &quot;Helvetica Neue&quot;, sans-serif; font-size: 12px; font-weight: 200;" fill="rgb(50, 49, 63)" stroke="none" stroke-width="1px">-0.1</text><text x="0" y="158.22222222222223" dx="0em" dy="0.3em" style="text-anchor: end; visibility: inherit; font-family: &quot;Helvetica Neue&quot;, sans-serif; font-size: 12px; font-weight: 200;" fill="rgb(50, 49, 63)" stroke="none" stroke-width="1px">0</text><text x="0" y="138.44444444444446" dx="0em" dy="0.3em" style="text-anchor: end; visibility: hidden; font-family: &quot;Helvetica Neue&quot;, sans-serif; font-size: 12px; font-weight: 200;" fill="rgb(50, 49, 63)" stroke="none" stroke-width="1px">0.1</text><text x="0" y="118.66666666666666" dx="0em" dy="0.3em" style="text-anchor: end; visibility: inherit; font-family: &quot;Helvetica Neue&quot;, sans-serif; font-size: 12px; font-weight: 200;" fill="rgb(50, 49, 63)" stroke="none" stroke-width="1px">0.2</text><text x="0" y="98.88888888888889" dx="0em" dy="0.3em" style="text-anchor: end; visibility: hidden; font-family: &quot;Helvetica Neue&quot;, sans-serif; font-size: 12px; font-weight: 200;" fill="rgb(50, 49, 63)" stroke="none" stroke-width="1px">0.3</text><text x="0" y="79.1111111111111" dx="0em" dy="0.3em" style="text-anchor: end; visibility: inherit; font-family: &quot;Helvetica Neue&quot;, sans-serif; font-size: 12px; font-weight: 200;" fill="rgb(50, 49, 63)" stroke="none" stroke-width="1px">0.4</text><text x="0" y="59.33333333333334" dx="0em" dy="0.3em" style="text-anchor: end; visibility: hidden; font-family: &quot;Helvetica Neue&quot;, sans-serif; font-size: 12px; font-weight: 200;" fill="rgb(50, 49, 63)" stroke="none" stroke-width="1px">0.5</text><text x="0" y="39.55555555555557" dx="0em" dy="0.3em" style="text-anchor: end; visibility: inherit; font-family: &quot;Helvetica Neue&quot;, sans-serif; font-size: 12px; font-weight: 200;" fill="rgb(50, 49, 63)" stroke="none" stroke-width="1px">0.6</text><text x="0" y="19.7777777777778" dx="0em" dy="0.3em" style="text-anchor: end; visibility: hidden; font-family: &quot;Helvetica Neue&quot;, sans-serif; font-size: 12px; font-weight: 200;" fill="rgb(50, 49, 63)" stroke="none" stroke-width="1px">0.7</text><text x="0" y="0" dx="0em" dy="0.3em" style="text-anchor: end; visibility: hidden; font-family: &quot;Helvetica Neue&quot;, sans-serif; font-size: 12px; font-weight: 200;" fill="rgb(50, 49, 63)" stroke="none" stroke-width="1px">0.8</text></g><line x1="58" y1="0" x2="58" y2="178" fill="rgb(0, 0, 0)" stroke="rgb(204, 204, 204)" stroke-width="1px"></line></g></g><g transform="translate(58, 0)" clip-path="url(#clip_0)"><clipPath id="clip_0"><rect width="272" height="178"></rect></clipPath><g><g><g><line x1="0" y1="0" x2="0" y2="178" fill="rgb(0, 0, 0)" stroke="rgb(60, 60, 60)" stroke-width="1px" opacity="0.25"></line><line x1="27.200000000000003" y1="0" x2="27.200000000000003" y2="178" fill="rgb(0, 0, 0)" stroke="rgb(60, 60, 60)" stroke-width="1px" opacity="0.25"></line><line x1="54.400000000000006" y1="0" x2="54.400000000000006" y2="178" fill="rgb(0, 0, 0)" stroke="rgb(60, 60, 60)" stroke-width="1px" opacity="0.25"></line><line x1="81.6" y1="0" x2="81.6" y2="178" fill="rgb(0, 0, 0)" stroke="rgb(60, 60, 60)" stroke-width="1px" opacity="0.25"></line><line x1="108.80000000000001" y1="0" x2="108.80000000000001" y2="178" fill="rgb(0, 0, 0)" stroke="rgb(60, 60, 60)" stroke-width="1px" opacity="0.25"></line><line x1="136" y1="0" x2="136" y2="178" fill="rgb(0, 0, 0)" stroke="rgb(60, 60, 60)" stroke-width="1px" opacity="0.25"></line><line x1="163.2" y1="0" x2="163.2" y2="178" fill="rgb(0, 0, 0)" stroke="rgb(60, 60, 60)" stroke-width="1px" opacity="0.25"></line><line x1="190.39999999999998" y1="0" x2="190.39999999999998" y2="178" fill="rgb(0, 0, 0)" stroke="rgb(60, 60, 60)" stroke-width="1px" opacity="0.25"></line><line x1="217.60000000000002" y1="0" x2="217.60000000000002" y2="178" fill="rgb(0, 0, 0)" stroke="rgb(60, 60, 60)" stroke-width="1px" opacity="0.25"></line><line x1="244.8" y1="0" x2="244.8" y2="178" fill="rgb(0, 0, 0)" stroke="rgb(60, 60, 60)" stroke-width="1px" opacity="0.25"></line><line x1="272" y1="0" x2="272" y2="178" fill="rgb(0, 0, 0)" stroke="rgb(60, 60, 60)" stroke-width="1px" opacity="0.25"></line></g><g><line x1="0" y1="178" x2="272" y2="178" fill="rgb(0, 0, 0)" stroke="rgb(60, 60, 60)" stroke-width="1px" opacity="0.25"></line><line x1="0" y1="158.22222222222223" x2="272" y2="158.22222222222223" fill="rgb(0, 0, 0)" stroke="rgb(60, 60, 60)" stroke-width="1px" opacity="0.25"></line><line x1="0" y1="138.44444444444446" x2="272" y2="138.44444444444446" fill="rgb(0, 0, 0)" stroke="rgb(60, 60, 60)" stroke-width="1px" opacity="0.25"></line><line x1="0" y1="118.66666666666666" x2="272" y2="118.66666666666666" fill="rgb(0, 0, 0)" stroke="rgb(60, 60, 60)" stroke-width="1px" opacity="0.25"></line><line x1="0" y1="98.88888888888889" x2="272" y2="98.88888888888889" fill="rgb(0, 0, 0)" stroke="rgb(60, 60, 60)" stroke-width="1px" opacity="0.25"></line><line x1="0" y1="79.1111111111111" x2="272" y2="79.1111111111111" fill="rgb(0, 0, 0)" stroke="rgb(60, 60, 60)" stroke-width="1px" opacity="0.25"></line><line x1="0" y1="59.33333333333334" x2="272" y2="59.33333333333334" fill="rgb(0, 0, 0)" stroke="rgb(60, 60, 60)" stroke-width="1px" opacity="0.25"></line><line x1="0" y1="39.55555555555557" x2="272" y2="39.55555555555557" fill="rgb(0, 0, 0)" stroke="rgb(60, 60, 60)" stroke-width="1px" opacity="0.25"></line><line x1="0" y1="19.7777777777778" x2="272" y2="19.7777777777778" fill="rgb(0, 0, 0)" stroke="rgb(60, 60, 60)" stroke-width="1px" opacity="0.25"></line><line x1="0" y1="0" x2="272" y2="0" fill="rgb(0, 0, 0)" stroke="rgb(60, 60, 60)" stroke-width="1px" opacity="0.25"></line></g></g></g><g><g><line x1="0" y1="158.22222222222223" x2="272" y2="158.22222222222223" fill="rgb(0, 0, 0)" stroke="rgb(153, 153, 153)" stroke-width="1.5px"></line></g></g><g><g><line x1="27.200000000000003" y1="0" x2="27.200000000000003" y2="178" fill="rgb(0, 0, 0)" stroke="rgb(153, 153, 153)" stroke-width="1.5px"></line></g></g><g><g><g><g><g><path stroke="rgb(0, 119, 187)" stroke-width="2px" d="M27.707008,158.21947104748526L28.180832000000002,158.21059930912713L28.653024000000002,158.21652936682872L29.645824,158.2191455687559L30.639167999999998,158.22047999513788L31.116256,158.20445011756186L31.5928,158.21176369272365L32.068256,158.1257305386796L32.545344,157.7154470766129L33.021888,157.9124438454881L33.497888,158.02142420458924L33.974976,158.01090091151542L34.450976,158.0592730557906L34.925888,158.12450383992197L35.40352,158.07632525672472L36.397952,157.92765548528507L36.87504,157.9713723850095L37.349408,157.73534284501713L37.826496,157.64925713445285L38.303584,157.46085128116223L38.780128000000005,156.91565767958872L39.773472,156.4215370822672L40.248928,156.2597114917911L40.723839999999996,156.1875021002804L41.199296,156.15135898002922L41.67584,156.05509864296707L42.152928,155.83450715369617L42.629472,155.4339850083027L43.105472,155.646744441835L44.098271999999994,155.08896606794391L44.574272,153.87222789790007L45.049184,154.506907246088L45.526272,154.1691060530219L46.001728,153.39046081725158L46.476639999999996,153.84908049491713L46.953184,152.77900244595165L47.428096,153.14879912414125L47.90464,151.15122262590586L48.381184,152.4938907100743L48.85664,151.0800940869948L49.331552,151.5933733905055L50.323808,150.84479543611664L50.800352,150.7575934286709L51.792063999999996,150.94144899982192L52.268608,149.5455657937942L53.26304,148.41134590956028L53.739039999999996,146.47833368736033L54.214496,146.5013892220249L54.69104,147.10604937541711L55.16704,147.46177916130648L55.642496,148.18752614366767L56.117408,147.8209307560445L57.110752000000005,147.80337897288857L57.58784,147.10311253013307L58.06384,143.30214410906052L58.540383999999996,145.13398318156015L59.01584,145.64523107739282L59.492384,144.46448833305814L60.487359999999995,143.36922512520187L60.963904,144.5674837401308L61.441536,144.64663568163695L61.916992,143.9378190128161L62.91088,141.30261684386846L63.386336,139.4487462046148L63.863424,143.7802295057086L64.3416,140.24855442916663L64.816512,140.42595122832577L65.8104,141.1930159907915L66.287488,142.6202775321563L66.763488,138.2942396610276L67.240576,135.10654671644943L67.716032,134.20394855664966L68.19148799999999,135.15566162092236L68.668576,131.78048475742654L69.144576,131.73595783011308L69.62112,130.51092676855836L70.098752,133.46552844103138L70.57312,132.7087457665494L71.049664,129.33244190479795L71.526208,129.007007885502L72.002208,130.69674335828992L72.478208,127.27565691352166L72.955296,127.3623278308726L73.431296,128.03641287962165L73.905664,126.53710784668135L74.38383999999999,124.88594122422381L74.85984,122.54687675186914L75.853728,124.63395694304856L76.846528,128.91146940038215L77.32361599999999,126.13092302905883L77.799616,119.21280098798957L78.275616,122.83308681619684L78.75270400000001,125.65379178984475L79.228704,122.29406965055176L79.70416,126.62025983234443L80.179616,123.07411287354216L80.654528,123.94459559065835L81.129984,119.85519403741401L81.605984,118.46371467029438L82.079808,117.10864176487821L82.556352,111.59708118917085L83.032896,110.12005790361685L83.50944,114.29972498589112L83.985984,115.99419242591338L84.46144000000001,122.16893391745363L84.936352,116.57932609215953L85.412896,116.57532942630198L85.888896,122.53076262410224L86.364896,118.80563553189018L86.840896,121.29071738993659L87.31635200000001,117.75810469261793L87.792352,117.71082823650565L88.269984,117.70598626308225L88.745984,115.41605107092411L89.222528,112.31248973802192L89.696896,112.91659958293647L90.17398399999999,113.28823456510935L90.65052800000001,110.91765338851697L91.127072,113.7212180482435L91.60307200000001,113.1574792205214L92.07852799999999,108.10610138343621L92.555616,109.00758430871808L93.031616,106.96295988931988L93.507616,104.89317965995774L93.983616,111.14722149135243L94.45907199999999,116.5767904553507L95.45296,111.983244164144L95.930592,107.4847681158248L96.40659199999999,105.91262996926024L96.882592,103.07559000293878L97.875936,104.78785984884647L98.870368,105.51254325081145L99.34582400000001,97.60339581484472L99.82128,97.95854436532251L100.297824,95.31246639661016L100.77382399999999,100.55577829966823L101.768256,97.75304437704148L102.243712,98.5560795898208L102.719712,102.46492569125175L103.19680000000001,99.22749254192797L103.673888,99.94696443198322L104.15043200000001,101.4247308308971L104.626432,102.8368123956245L105.101888,99.76106931692689L105.577888,105.1659123270624L106.05388799999999,99.58085184044454L106.5288,101.60253290250654L107.00643199999999,100.4426136356147L107.482432,96.28210259989878L107.95843199999999,94.48194546013661L108.434432,87.28778968823372L108.910432,90.49736700531626L109.90486399999999,89.79799937850308L110.38032,93.65770574464707L110.85632,88.12644448577615L111.33232,84.2903599714526L111.80832,86.65874632052315L112.284864,90.00459783783593L112.761408,84.16427863809756L113.235776,76.7823581262162L113.71231999999999,83.9578481838013L114.18886400000001,89.90361449800693L115.183296,85.08502959883536L115.659296,84.86003778582608L116.134752,89.09269596196027L116.611296,81.86357840002331L117.08784,85.00639456703054L117.56384,84.19806897623279L118.03984000000001,82.26245000352226L118.51692800000001,78.63957683610114L118.99184000000001,75.97295325286171L119.46784,78.13476373591875L119.94492799999999,73.11849966615421L120.420928,84.59922800509786L120.896384,86.49901850120087L121.372384,87.93464203931408L121.848928,87.69183458110867L122.324928,86.46931306984065L122.800928,81.57398780464753L123.276928,82.9160158491907L123.753472,81.45079140869112L124.230016,87.81555389104022L124.707104,87.21536508443594L125.184192,91.63667343535937L125.660736,88.37066831741748L126.137824,90.97369751598183L126.61382400000001,86.02229816873319L127.089824,82.11937691399454L127.566912,75.28722223087219L128.041824,77.91592757171829L128.516736,82.15192088709804L128.992736,81.13030673334254L129.468736,83.75924880466413L129.944736,81.92578643722929L130.420736,80.12078419491476L130.896736,81.01895617940919L131.37328,80.2182407402264L131.850368,82.684368892573L132.32582399999998,79.92690743317631L132.80128,81.21537834259793L133.278368,74.54410073801964L134.270624,82.32109668175761L134.747712,85.60093667565681L135.222624,81.22729699752733L135.698624,71.39191491370602L136.17516799999999,74.53531939631489L136.650624,83.63389953349173L137.12608,76.9415450065449L137.602624,81.35554205922311L138.07862400000002,74.03614407111024L138.552992,77.42574937075993L139.027904,73.59000767494283L139.50390399999998,78.4054790755281L139.98044800000002,71.08682976154171L140.45753599999998,76.90853527512095L140.93081600000002,70.24850884936482L141.405184,79.6227092840672L142.39907200000002,86.96001232521802L142.87344000000002,79.27459645517244L143.866784,75.66487448098141L144.34332799999999,77.26142006856661L144.81987199999998,82.59941159068357L145.295872,83.73400594221836L145.770784,79.58884650127463L146.764672,76.11282516778003L147.23958399999998,69.07846748785471L147.71721599999998,68.55106395854331L148.192128,79.90587615792221L148.668672,69.13207638953686L149.14467199999999,76.2938439278146L149.620128,69.77298948801268L150.096128,66.16474205833698L150.572128,60.87151921274811L151.046496,63.61455246100357L151.521952,63.359080138872585L151.997408,58.86549509946734L152.47286400000002,87.24235567282177L152.949408,81.66450775429597L153.42703999999998,82.99539011510538L153.902496,71.48565379257396L154.37904,64.96056556918792L154.856672,59.602028116893194L155.333216,63.77656256012142L155.808128,70.31107174665941L156.286304,82.6872089053531L156.76176,75.45462378202582L157.236672,69.6551031874606L157.71375999999998,70.10799752780397L158.19030400000003,70.74003705711988L158.664672,66.29253603351543L159.141216,58.6684131436824L159.616128,69.0777997700341L160.092128,63.84235616757941L160.56921599999998,62.070983795397964L161.04467200000002,65.78165543693049L161.520672,64.88789921969818L161.99776,70.55328826754346L162.47376,55.69901720804735L162.950304,57.92946500321554L163.42576,59.89395157540039L163.900672,64.78116310993683L164.376128,57.28288302967195L164.85267199999998,70.98099983224814L165.32867199999998,64.93483534415954L165.804128,56.97641431930565L166.280672,66.12783365301696L166.75667199999998,68.8827171402982L167.751104,70.2149087846299L168.22656,64.72019707852058L168.70255999999998,62.36023310637546L169.69807999999998,65.42407531893562L170.174624,67.9049750898989L170.650624,61.03702161187866L171.126624,60.272055610864996L171.602624,54.8333085817527L172.07916799999998,53.639064899960374L172.554624,65.46645960588673L173.031168,64.67087604497192L173.50662400000002,63.27034927543592L173.98262400000002,61.05885212304149L174.458624,64.91505829369864L175.45305599999998,65.80142175282542L175.93014399999998,63.856901070892505L176.407232,70.22696809191024L176.88323200000002,67.70965964394587L177.36032,66.77283335604932L177.83468800000003,54.65640606874095L178.310688,56.15787708596706L178.786688,50.53549904990652L179.26160000000002,60.92089792775852L179.738144,61.405338606695125L180.214144,54.89361959120552L180.6896,57.82646602576857L181.16668800000002,52.136355672725685L182.1584,47.843449279337335L182.63494400000002,48.17575698706992L183.1104,48.5809495094891L183.586944,54.04968343834932L184.0624,54.63966229223389L185.05574399999998,59.41137559146924L185.53228800000002,57.64413610986945L186.00719999999998,58.89317573377072L186.48265600000002,55.07375707057929L186.9592,63.498911092314685L187.4352,61.42833532404251L188.429632,59.697272730934685L188.905632,48.14265604400717L189.38272,44.49754059066825L189.858176,42.01847552839524L190.33363200000002,47.77123441447975L190.809632,52.904654693174024L191.286176,58.0748646341502L191.76163200000002,51.08332412471144L192.237088,51.50713815243239L192.713632,54.772983273904046L193.18908800000003,51.57451183857948L193.665088,59.43717006667579L194.141088,57.803290718407865L194.617088,57.85653408782369L195.093088,55.845579971042056L195.568544,54.9268726098869L196.044,57.11956409543757L196.52108800000002,47.644299710704246L196.997632,46.519597196858484L197.473632,60.13708171437396L197.94963199999998,53.68761283206405L198.426176,59.17006522710268L198.90326399999998,50.52804234866058L199.38089599999998,47.27861396815632L199.85635200000002,47.03595629474606L200.33344,46.75918898070506L200.808896,49.2735446994582L201.284352,47.7462582266709L201.75871999999998,49.900892323172286L202.235808,50.478895152492385L202.71180800000002,50.31674126545242L203.188352,47.2515025098038L204.180608,50.907947876918385L204.656608,44.53086819183912L205.132064,50.217315481363926L205.608064,45.79956693757458L206.08352,61.694264839609446L206.55952000000002,50.599737752456136L207.034976,62.765819699287945L208.02777600000002,67.08799499912294L208.50432,62.9477920954685L208.98032,57.42757240287031L209.97312,53.446953939175685L210.44966399999998,55.11108777132198L210.926208,54.974078659785505L211.401664,46.18956024654403L211.878208,50.20485665590846L212.354208,49.57130671323776L212.83020800000003,49.499530224689465L213.305664,50.63774960691386L213.781664,48.71092995874872L214.258208,49.08716062960036L215.250464,46.19611604896724L215.72700799999998,45.910500255550176L216.202464,47.02620110683489L216.679008,50.249047565430814L217.15446400000002,45.15677295471124L217.631008,43.26603399190904L218.107552,43.92349999100793L218.58192000000003,44.59680058198336L219.057376,44.67252379969392L219.53228800000002,43.67113650695529L220.008288,47.00493844595513L220.484832,39.486347348307675L221.47872,46.43160442228688L221.952544,43.48116559018038L222.427456,44.44041032000655L222.902368,49.90500991982785L223.895712,57.391363756513L224.371168,54.94909180203403L225.364512,54.619868763946116L225.84105599999998,60.79399816711502L226.316512,52.78635556742735L226.793056,48.180759451923564L227.26905599999998,48.11605230167444L227.74560000000002,44.58401075519089L228.73839999999998,44.18348406397811L229.213856,47.43896933912674L229.689856,41.18382332634593L230.16422400000002,45.11584951957397L230.640768,42.36914227162666L231.117312,45.41437827467507L231.59222400000002,45.6077788156114L232.06768,45.741681036264225L232.54422399999999,50.415429628702995L233.01968,43.07120297824787L233.49568,38.285012103636404L233.97222399999998,36.07247604778567L234.448768,35.68511352317893L234.924768,35.56896808703493L235.39804800000002,34.74978849797628L235.873504,29.742286036797793L236.34896,35.87388506422414L236.825504,36.943894819425054L237.301504,36.67594834990362L237.777504,38.32641822725108L238.25296,46.084227416029336L238.730592,42.72800814032533L239.205504,47.47597090024405L239.680416,39.721596016200294L240.155872,37.10122858970743L240.631328,39.5744352442718L241.107328,35.39526111367189L241.580064,37.747795604563805L242.05606400000002,38.36356128361976L242.53152,41.43101105555189L243.528128,45.06803966971148L244.006848,45.949191234315236L244.485568,48.838354375378486L245.486528,51.71305672312751L245.965248,54.75838057191157L246.444512,53.95434028832041L246.92486399999999,50.071794800196315L247.404672,40.87331221303066L247.885024,37.32620805383158L248.885984,47.25950210950367L249.365792,40.3307294732692L249.845056,45.90953371642206L250.323232,39.802742886188014L250.80521599999997,37.224613199550674L251.285568,32.013533386208564L251.765376,32.51264292753814L252.245728,39.80836060630858L252.724448,36.03151500151438L253.205888,36.47539866986071L253.689504,40.516879275904614L254.171488,46.21577586062739" style="fill: none;" fill="none"></path></g></g></g></g><g opacity="0.2"><g><g><g><path stroke="rgb(0, 119, 187)" stroke-width="2px" d="M27.707008,158.21947104748526L28.180832000000002,158.20527626611226L28.653024000000002,158.22222222222223L29.645824,158.22222222222223L30.639167999999998,158.22222222222223L31.116256,158.18227502611828L31.5928,158.22222222222223L32.068256,158.00029337416507L32.545344,157.11035866352418L33.021888,158.20496108847632L33.497888,158.18390629940484L33.974976,157.99517323920088L34.450976,158.13167332875958L34.925888,158.22222222222223L35.40352,158.00411401404483L36.397952,157.7047556815669L36.87504,158.0369292350693L37.349408,157.38135846290322L37.826496,157.52014168289801L38.303584,157.1782597222676L38.780128000000005,156.09789717694125L39.773472,155.68037244553366L40.248928,156.01697630104093L40.723839999999996,156.07918886840343L41.199296,156.09714455654225L41.67584,155.91070854788026L42.152928,155.50362048422298L42.629472,154.83320240510835L43.105472,155.96588339615198L44.098271999999994,154.25229881538286L44.574272,152.04712104631795L45.049184,155.4589261420899L45.526272,153.6624043037494L46.001728,152.22249301936893L46.476639999999996,154.53700999170542L46.953184,151.17388540009657L47.428096,153.70349413570432L47.90464,148.1548578970962L48.381184,154.50789282884864L48.85664,148.95939915710025L49.331552,152.36329234474235L50.323808,149.72192850543394L50.800352,150.62679041756525L51.792063999999996,151.21723235646883L52.268608,147.45174098511538L53.26304,146.71001608338622L53.739039999999996,143.57881535424127L54.214496,146.5359725240204L54.69104,148.01303960548506L55.16704,147.99537384013334L55.642496,149.27614661720065L56.117408,147.27103767461247L57.110752000000005,147.77705129815473L57.58784,146.05271286600166L58.06384,137.60069147745767L58.540383999999996,147.8817417903079L59.01584,146.41210292114152L59.492384,142.69337421655655L60.487359999999995,141.72633031341763L60.963904,146.36487166252402L61.441536,144.76536359389624L61.916992,142.87459400958485L62.91088,137.3498135904471L63.386336,136.66794024573431L63.863424,150.27745445734925L64.3416,134.95104181435374L64.816512,140.69204642706447L65.8104,142.3436131344901L66.287488,144.76116984420352L66.763488,131.80518285433453L67.240576,130.32500729958218L67.716032,132.85005131695004L68.19148799999999,136.58323121733136L68.668576,126.7177194621828L69.144576,131.66916743914288L69.62112,128.67338017622632L70.098752,137.89743094974094L70.57312,131.57357175482645L71.049664,124.26798611217075L71.526208,128.51885685655807L72.002208,133.2313465674718L72.478208,122.14402724636926L72.955296,127.49233420689902L73.431296,129.04754045274524L73.905664,124.28815029727089L74.38383999999999,122.40919129053752L74.85984,119.0382800433371L75.853728,127.76457722981772L76.846528,135.32773808638254L77.32361599999999,121.96010347207388L77.799616,108.83561792638567L78.275616,128.26351555850772L78.75270400000001,129.88484925031662L79.228704,117.25448644161224L79.70416,133.10954510503345L80.179616,117.75489243533877L80.654528,125.25031966633267L81.129984,113.72109170754752L81.605984,116.37649561961493L82.079808,115.07603240675397L82.556352,103.32974032560985L83.032896,107.90452297528586L83.50944,120.56922560930252L83.985984,118.53589358594684L84.46144000000001,131.43104615476398L84.936352,108.19491435421838L85.412896,116.56933442751567L85.888896,131.46391242080264L86.364896,113.21794489357207L86.840896,125.0183401770062L87.31635200000001,112.45918564663994L87.792352,117.63991355233722L88.269984,117.69872330294716L88.745984,111.98114828268687L89.222528,107.65714773866866L89.696896,113.82276435030832L90.17398399999999,113.84568703836865L90.65052800000001,107.3617816236284L91.127072,117.92656503783333L91.60307200000001,112.31187097893822L92.07852799999999,100.52903462780847L92.555616,110.35980869664087L93.031616,103.89602326022255L93.507616,101.78850931591458L93.983616,120.52828423844444L94.45907199999999,124.72114390134811L95.45296,105.09292472733392L95.930592,100.73705404334599L96.40659199999999,103.55442274941339L96.882592,98.82003005345663L97.875936,107.35626461770799L98.870368,106.59956835375893L99.34582400000001,85.73967466089461L99.82128,98.4912671910392L100.297824,91.34334944354164L100.77382399999999,108.42074615425534L101.768256,93.54894349310133L102.243712,99.7606324089898L102.719712,108.32819484339821L103.19680000000001,94.3713428179423L103.673888,101.02617226706612L104.15043200000001,103.6413804292679L104.626432,104.95493474271562L105.101888,95.14745469888052L105.577888,113.27317684226567L106.05388799999999,91.20326111051772L106.5288,104.63505449559953L107.00643199999999,98.70273473527696L107.482432,90.04133604632484L107.95843199999999,91.78170975049338L108.434432,76.49655603037941L108.910432,95.31173298094008L109.90486399999999,88.7489479382833L110.38032,99.44726529386308L110.85632,79.82955259746977L111.33232,78.53623319996728L111.80832,90.21132584412894L112.284864,95.02337511380514L112.761408,75.40379983848997L113.235776,65.70947735839421L113.71231999999999,94.72108327017891L114.18886400000001,98.82226396931543L115.183296,77.85715225007799L115.659296,84.52255006631216L116.134752,95.44168322616154L116.611296,71.0199020571179L117.08784,89.72061881754134L117.56384,82.98558059003618L118.03984000000001,79.35902154445648L118.51692800000001,73.20526708496942L118.99184000000001,71.97301787800261L119.46784,81.37747946050432L119.94492799999999,65.59410356150734L120.420928,101.82032051351335L120.896384,89.34870424535539L121.372384,90.08807734648387L121.848928,87.32762339380052L122.324928,84.63553080293867L122.800928,74.23099990685782L123.276928,84.92905791600546L123.753472,79.25295474794176L124.230016,97.36269761456384L124.707104,86.31508187452954L125.184192,98.26863596174452L125.660736,83.47166064050462L126.137824,94.87824131382837L126.61382400000001,78.59519914786023L127.089824,76.26499503188664L127.566912,65.03899020618864L128.041824,81.85898558298749L128.516736,88.50591086016762L128.992736,79.59788550270929L129.468736,87.70266191164654L129.944736,79.17559288607704L130.420736,77.41328083144295L130.896736,82.36621415615082L131.37328,79.01716758145227L131.850368,86.38356112109291L132.32582399999998,75.79071524408128L132.80128,83.14808470673033L133.278368,64.53718433115218L134.270624,93.98659059736464L134.747712,90.5206966665056L135.222624,74.66683748033311L135.698624,56.63884178797406L136.17516799999999,79.25042612022825L136.650624,97.28176973925697L137.12608,66.90301321612465L137.602624,87.9765376382404L138.07862400000002,63.05704708894095L138.552992,82.51015732023451L139.027904,67.83639513121712L139.50390399999998,85.62868617640602L139.98044800000002,60.10885579056212L140.45753599999998,85.64109354548985L140.93081600000002,60.25846921073067L141.405184,93.68400993612077L142.39907200000002,97.96596688694424L142.87344000000002,67.74647265010411L143.866784,70.25029151969487L144.34332799999999,79.6562384499444L144.81987199999998,90.60639887385899L145.295872,85.43589746952057L145.770784,73.37110733985901L146.764672,70.89879316753813L147.23958399999998,58.526930967966734L147.71721599999998,67.75995866457623L148.192128,96.93809445699057L148.668672,52.97137673695883L149.14467199999999,87.03649523523119L149.620128,59.9917078283098L150.096128,60.752370913823455L150.572128,52.93168494436476L151.046496,67.72910233338675L151.521952,62.9758716556761L151.997408,52.1251175403595L152.47286400000002,129.80764653285343L152.949408,73.29773587650725L153.42703999999998,84.99171365631952L153.902496,54.221049308776855L154.37904,55.172933234108825L154.856672,51.56422193845114L155.333216,70.03836422496373L155.808128,80.11283552646637L156.286304,101.25141464339363L156.76176,64.6057460970349L157.236672,60.955822295612776L157.71375999999998,70.78733903831908L158.19030400000003,71.68809635109373L158.664672,59.621284498108764L159.141216,47.23222880893283L159.616128,84.69187970956168L160.092128,55.98919076389738L160.56921599999998,59.41392523712584L161.04467200000002,71.34766289922926L161.520672,63.5472648938497L161.99776,79.05137183931139L162.47376,33.41761061880325L162.950304,61.27513669596779L163.42576,62.84068143367767L163.900672,72.11198041174147L164.376128,46.03546290927463L164.85267199999998,91.52817503611247L165.32867199999998,55.865588612026656L165.804128,45.03878278202481L166.280672,79.85496265358397L166.75667199999998,73.01504237122008L167.751104,72.21319625112746L168.22656,56.47812951935663L168.70255999999998,58.820287148157774L169.69807999999998,70.01983863777586L170.174624,71.62632474634383L170.650624,50.73509139484831L171.126624,59.12460660934448L171.602624,46.67518803808423L172.07916799999998,51.847699377271866L172.554624,83.20755166477629L173.031168,63.477500703599716L173.50662400000002,61.1695591211319L173.98262400000002,57.74160639444989L174.458624,70.69936754968431L175.45305599999998,67.13096694151562L175.93014399999998,60.94012004799315L176.407232,79.78206862343683L176.88323200000002,63.93369697199928L177.36032,65.36759392420453L177.83468800000003,36.48176513777841L178.310688,58.41008361180624L178.786688,42.101931995815704L179.26160000000002,76.49899624453651L179.738144,62.131999625100036L180.214144,45.12604106797113L180.6896,62.22573567761316L181.16668800000002,43.60119014316135L182.1584,41.40408968925476L182.63494400000002,48.67421854866876L183.1104,49.18873829311795L183.586944,62.25278433163962L184.0624,55.524630573060776L185.05574399999998,66.5689455403222L185.53228800000002,54.99327688746983L186.00719999999998,60.766735169622635L186.48265600000002,49.34462907579211L186.9592,76.13664212491777L187.4352,58.32247167163426L188.429632,57.10067884127301L188.905632,30.810731013615936L189.38272,39.02986741065979L189.858176,38.29987793498569L190.33363200000002,56.40037274360657L190.809632,60.60478511121538L191.286176,65.83017954561446L191.76163200000002,40.596013360553314L192.237088,52.14285919401381L192.713632,59.671750956111495L193.18908800000003,46.77680468559265L193.665088,71.23115740882027L194.141088,55.352471696005935L194.617088,57.93639914194745L195.093088,52.829148795869614L195.568544,53.548811568154235L196.044,60.40860132376355L196.52108800000002,33.43140313360428L196.997632,44.83254342608981L197.473632,80.56330849064722L197.94963199999998,44.01340950859918L198.426176,67.39374381966063L198.90326399999998,37.565008030997404L199.38089599999998,42.4044713973999L199.85635200000002,46.671969784630676L200.33344,46.344038009643555L200.808896,53.04507827758789L201.284352,45.45532851748996L201.75871999999998,53.13284346792433L202.235808,51.34589939647252L202.71180800000002,50.07351043489244L203.188352,42.6536443763309L204.180608,56.39261592759027L204.656608,34.965248664220184L205.132064,58.74698641565111L205.608064,39.172944121890595L206.08352,85.53631169266173L206.55952000000002,33.957947121726164L207.034976,81.01494261953566L208.02777600000002,73.57125794887543L208.50432,56.73748773998686L208.98032,49.14724286397299L209.97312,47.4760262436337L210.44966399999998,57.60728851954144L210.926208,54.76856499248082L211.401664,33.012782626681854L211.878208,56.22780126995512L212.354208,48.62098179923166L212.83020800000003,49.391865491867065L213.305664,52.34507868025038L213.781664,45.82070048650107L214.258208,49.65150663587781L215.250464,41.85954917801752L215.72700799999998,45.48207656542462L216.202464,48.69975238376193L216.679008,55.08331725332472L217.15446400000002,37.518361038631866L217.631008,40.42992554770578L218.107552,44.90969898965625L218.58192000000003,45.60675146844653L219.057376,44.786108626259704L219.53228800000002,42.16905556784738L220.008288,52.005641354454895L220.484832,28.208460701836486L221.47872,56.84949003325569L221.952544,39.05550734202069L222.427456,45.87927741474576L222.902368,58.10190931955975L223.895712,68.62089451154074L224.371168,51.28568387031555L225.364512,54.12603420681425L225.84105599999998,70.0551922718684L226.316512,40.774891667895844L226.793056,41.27236527866788L227.26905599999998,48.01899157630075L227.74560000000002,39.285948435465514L228.73839999999998,43.582694027158965L229.213856,52.322197251849715L229.689856,31.801104307174683L230.16422400000002,51.01388880941603L230.640768,38.24908139970569L231.117312,49.98223227924771L231.59222400000002,45.89787962701587L232.06768,45.94253436724347L232.54422399999999,57.42605251736113L233.01968,32.054863002565185L233.49568,31.105725791719237L233.97222399999998,32.75367196400961L234.448768,35.1040697362688L234.924768,35.39474993281894L235.39804800000002,33.521019114388366L235.873504,22.23103234503006L236.34896,45.07128360536365L236.825504,38.54890945222644L237.301504,36.27402864562143L237.777504,40.802123043272246L238.25296,57.720941199196716L238.730592,37.69367922676935L239.205504,54.597915040122146L239.680416,28.090033690134703L240.155872,33.17067744996814L240.631328,43.284245226118315L241.107328,29.126499917772094L241.580064,41.2765973409017L242.05606400000002,39.287209802203705L242.53152,46.03218571345013L243.528128,50.523582590950866L244.006848,47.270918581220826L244.485568,53.172099086973404L245.486528,56.02511024475098L245.965248,59.326366345087706L246.444512,52.7482798629337L246.92486399999999,44.24797656801013L247.404672,27.075588332282194L247.885024,32.00555181503296L248.885984,62.159443193011825L249.365792,29.93757051891751L249.845056,54.277740081151336L250.323232,30.642556640836943L250.80521599999997,33.357418669594665L251.285568,24.196913666195343L251.765376,33.26130723953247L252.245728,50.75193712446425L252.724448,30.36624659432306L253.205888,37.14122417238025L253.689504,46.57910018497043L254.171488,54.76412073771161" style="fill: none;" fill="none"></path></g></g></g></g></g></g><g transform="translate(58, 178)" clip-path="url(#clip_1)"><clipPath id="clip_1"><rect width="272" height="22"></rect></clipPath><g><g><line x1="0" y1="0" x2="0" y2="5" style="visibility: inherit;" fill="rgb(0, 0, 0)" stroke="rgb(204, 204, 204)" stroke-width="1px"></line><line x1="27.200000000000003" y1="0" x2="27.200000000000003" y2="5" style="visibility: inherit;" fill="rgb(0, 0, 0)" stroke="rgb(204, 204, 204)" stroke-width="1px"></line><line x1="54.400000000000006" y1="0" x2="54.400000000000006" y2="5" style="visibility: inherit;" fill="rgb(0, 0, 0)" stroke="rgb(204, 204, 204)" stroke-width="1px"></line><line x1="81.6" y1="0" x2="81.6" y2="5" style="visibility: inherit;" fill="rgb(0, 0, 0)" stroke="rgb(204, 204, 204)" stroke-width="1px"></line><line x1="108.80000000000001" y1="0" x2="108.80000000000001" y2="5" style="visibility: inherit;" fill="rgb(0, 0, 0)" stroke="rgb(204, 204, 204)" stroke-width="1px"></line><line x1="136" y1="0" x2="136" y2="5" style="visibility: inherit;" fill="rgb(0, 0, 0)" stroke="rgb(204, 204, 204)" stroke-width="1px"></line><line x1="163.2" y1="0" x2="163.2" y2="5" style="visibility: inherit;" fill="rgb(0, 0, 0)" stroke="rgb(204, 204, 204)" stroke-width="1px"></line><line x1="190.39999999999998" y1="0" x2="190.39999999999998" y2="5" style="visibility: inherit;" fill="rgb(0, 0, 0)" stroke="rgb(204, 204, 204)" stroke-width="1px"></line><line x1="217.60000000000002" y1="0" x2="217.60000000000002" y2="5" style="visibility: inherit;" fill="rgb(0, 0, 0)" stroke="rgb(204, 204, 204)" stroke-width="1px"></line><line x1="244.8" y1="0" x2="244.8" y2="5" style="visibility: inherit;" fill="rgb(0, 0, 0)" stroke="rgb(204, 204, 204)" stroke-width="1px"></line><line x1="272" y1="0" x2="272" y2="5" style="visibility: inherit;" fill="rgb(0, 0, 0)" stroke="rgb(204, 204, 204)" stroke-width="1px"></line></g><g transform="translate(0, 8)"><text x="0" y="0" dx="0em" dy="0.95em" style="text-anchor: middle; visibility: hidden; font-family: &quot;Helvetica Neue&quot;, sans-serif; font-size: 12px; font-weight: 200;" fill="rgb(50, 49, 63)" stroke="none" stroke-width="1px">-50k</text><text x="27.200000000000003" y="0" dx="0em" dy="0.95em" style="text-anchor: middle; visibility: inherit; font-family: &quot;Helvetica Neue&quot;, sans-serif; font-size: 12px; font-weight: 200;" fill="rgb(50, 49, 63)" stroke="none" stroke-width="1px">0</text><text x="54.400000000000006" y="0" dx="0em" dy="0.95em" style="text-anchor: middle; visibility: hidden; font-family: &quot;Helvetica Neue&quot;, sans-serif; font-size: 12px; font-weight: 200;" fill="rgb(50, 49, 63)" stroke="none" stroke-width="1px">50k</text><text x="81.6" y="0" dx="0em" dy="0.95em" style="text-anchor: middle; visibility: inherit; font-family: &quot;Helvetica Neue&quot;, sans-serif; font-size: 12px; font-weight: 200;" fill="rgb(50, 49, 63)" stroke="none" stroke-width="1px">100k</text><text x="108.80000000000001" y="0" dx="0em" dy="0.95em" style="text-anchor: middle; visibility: hidden; font-family: &quot;Helvetica Neue&quot;, sans-serif; font-size: 12px; font-weight: 200;" fill="rgb(50, 49, 63)" stroke="none" stroke-width="1px">150k</text><text x="136" y="0" dx="0em" dy="0.95em" style="text-anchor: middle; visibility: inherit; font-family: &quot;Helvetica Neue&quot;, sans-serif; font-size: 12px; font-weight: 200;" fill="rgb(50, 49, 63)" stroke="none" stroke-width="1px">200k</text><text x="163.2" y="0" dx="0em" dy="0.95em" style="text-anchor: middle; visibility: hidden; font-family: &quot;Helvetica Neue&quot;, sans-serif; font-size: 12px; font-weight: 200;" fill="rgb(50, 49, 63)" stroke="none" stroke-width="1px">250k</text><text x="190.39999999999998" y="0" dx="0em" dy="0.95em" style="text-anchor: middle; visibility: inherit; font-family: &quot;Helvetica Neue&quot;, sans-serif; font-size: 12px; font-weight: 200;" fill="rgb(50, 49, 63)" stroke="none" stroke-width="1px">300k</text><text x="217.60000000000002" y="0" dx="0em" dy="0.95em" style="text-anchor: middle; visibility: hidden; font-family: &quot;Helvetica Neue&quot;, sans-serif; font-size: 12px; font-weight: 200;" fill="rgb(50, 49, 63)" stroke="none" stroke-width="1px">350k</text><text x="244.8" y="0" dx="0em" dy="0.95em" style="text-anchor: middle; visibility: inherit; font-family: &quot;Helvetica Neue&quot;, sans-serif; font-size: 12px; font-weight: 200;" fill="rgb(50, 49, 63)" stroke="none" stroke-width="1px">400k</text><text x="272" y="0" dx="0em" dy="0.95em" style="text-anchor: middle; visibility: hidden; font-family: &quot;Helvetica Neue&quot;, sans-serif; font-size: 12px; font-weight: 200;" fill="rgb(50, 49, 63)" stroke="none" stroke-width="1px">450k</text></g><line x1="0" y1="0" x2="272" y2="0" fill="rgb(0, 0, 0)" stroke="rgb(204, 204, 204)" stroke-width="1px"></line></g></g></g></g></svg>